<?xml version="1.0" standalone="no"?>
<!DOCTYPE svg PUBLIC "-//W3C//DTD SVG 20010904//EN"
 "http://www.w3.org/TR/2001/REC-SVG-20010904/DTD/svg10.dtd">
<svg version="1.0" xmlns="http://www.w3.org/2000/svg"
 width="700.000000pt" height="700.000000pt" viewBox="0 0 700.000000 700.000000"
 preserveAspectRatio="xMidYMid meet">
<metadata>
Created by potrace 1.14, written by Peter Selinger 2001-2017
</metadata>
<g transform="translate(0.000000,700.000000) scale(0.100000,-0.100000)"
fill="#000000" stroke="none">
<path d="M4654 6434 c-44 -11 -58 -19 -107 -63 -63 -57 -86 -151 -60 -243 15
-50 36 -74 369 -408 l354 -355 -1239 -1240 c-681 -682 -1244 -1250 -1250
-1262 -16 -32 -13 -84 7 -114 24 -36 440 -451 474 -473 30 -20 86 -24 114 -8
9 5 575 568 1258 1251 l1242 1241 344 -345 c190 -189 363 -354 385 -367 51
-28 152 -31 206 -4 47 22 95 70 122 120 21 41 21 41 21 1071 l1 1030 -27 46
c-15 26 -42 59 -60 74 -73 62 -10 58 -1107 59 -690 1 -1018 -2 -1047 -10z"/>
<path d="M1020 5945 c-230 -41 -414 -138 -579 -303 -188 -187 -291 -392 -317
-633 -10 -85 -10 -3334 0 -3427 32 -316 237 -622 541 -809 67 -41 239 -107
308 -118 18 -3 57 -10 87 -15 74 -12 3366 -11 3445 1 298 47 548 198 730 444
114 153 181 326 201 515 9 85 9 1314 1 1361 -4 20 -20 48 -37 64 -29 28 -29
28 -174 29 -182 2 -226 -9 -251 -60 -15 -33 -17 -97 -19 -713 l-2 -676 -23
-65 c-60 -171 -191 -313 -346 -377 -116 -48 -63 -46 -1780 -47 -1822 -1 -1745
-4 -1888 73 -142 77 -251 215 -297 376 -20 69 -20 98 -17 1750 l2 1680 23 65
c71 198 243 353 442 401 44 10 335 13 1446 14 1327 0 1391 1 1418 18 46 31 56
71 56 228 0 162 -10 197 -65 223 -30 15 -173 16 -1432 15 -1120 -1 -1413 -4
-1473 -14z"/>
</g>
</svg>
